<svg width="30" height="30" viewBox="0 0 30 30" fill="none" xmlns="http://www.w3.org/2000/svg">
<ellipse cx="14.5" cy="15" rx="10.5" ry="10" fill="white"/>
<path fill-rule="evenodd" clip-rule="evenodd" d="M15 0C23.2843 0 30 6.71573 30 15C30 23.2843 23.2843 30 15 30C6.71573 30 0 23.2843 0 15C0 6.71573 6.71573 0 15 0ZM9.56475 18.6423C9.17977 19.0033 8.58054 19.0029 8.19595 18.6415L7.77549 18.2464C7.35522 17.8515 7.35522 17.1839 7.77549 16.7889L14.3152 10.6435C14.7001 10.2818 15.2999 10.2818 15.6848 10.6435L22.2245 16.7889C22.6448 17.1839 22.6448 17.8515 22.2245 18.2464L21.8041 18.6415C21.4195 19.0029 20.8202 19.0033 20.4352 18.6423L15.684 14.1872C15.2993 13.8265 14.7007 13.8265 14.316 14.1872L9.56475 18.6423Z" fill="#222222"/>
</svg>
