<svg width="30" height="30" viewBox="0 0 30 30" fill="none" xmlns="http://www.w3.org/2000/svg">
<path fill-rule="evenodd" clip-rule="evenodd" d="M15 30C23.2843 30 30 23.2843 30 15C30 6.71573 23.2843 0 15 0C6.71573 0 0 6.71573 0 15C0 23.2843 6.71573 30 15 30ZM9.55335 12.612C9.17164 12.2651 8.58865 12.2654 8.20732 12.6128L7.81155 12.9733C7.3761 13.3699 7.3761 14.0552 7.81155 14.4518L14.3266 20.3866C14.7082 20.7342 15.2918 20.7342 15.6734 20.3866L22.1885 14.4518C22.6239 14.0552 22.6239 13.3699 22.1885 12.9733L21.7927 12.6128C21.4114 12.2654 20.8284 12.2651 20.4467 12.612L15.6726 16.9514C15.2912 17.2981 14.7088 17.2981 14.3274 16.9514L9.55335 12.612Z" fill="#222222"/>
</svg>
