<svg width="31" height="31" viewBox="0 0 31 31" fill="none" xmlns="http://www.w3.org/2000/svg">
<circle cx="15" cy="15" r="15" transform="matrix(-0.0155272 0.999879 0.999879 0.0155272 0.928017 0)" fill="#0066AE"/>
<path d="M13.4118 8.40211C13.0586 8.77801 13.0492 9.36092 13.3902 9.74797L17.6549 14.5888C17.9956 14.9755 17.9866 15.5579 17.634 15.9339L13.2211 20.64C12.8682 21.0162 12.8595 21.5992 13.2009 21.9858L13.5552 22.3872C13.9451 22.8287 14.6302 22.8394 15.0336 22.4101L21.0688 15.988C21.4223 15.6118 21.4314 15.0283 21.0897 14.6413L15.2568 8.03494C14.8669 7.59339 14.1818 7.58275 13.7784 8.01199L13.4118 8.40211Z" fill="white"/>
</svg>
